<?xml version="1.0" standalone="no"?>
<!DOCTYPE svg PUBLIC "-//W3C//DTD SVG 20010904//EN"
 "http://www.w3.org/TR/2001/REC-SVG-20010904/DTD/svg10.dtd">
<svg version="1.0" xmlns="http://www.w3.org/2000/svg"
 width="1024.000000pt" height="1024.000000pt" viewBox="0 0 1024.000000 1024.000000"
 preserveAspectRatio="xMidYMid meet">

<g transform="translate(0.000000,1024.000000) scale(0.100000,-0.100000)"
fill="#4A6CF7" stroke="none">
<path d="M4880 7394 c-97 -6 -222 -25 -330 -50 -152 -36 -407 -123 -490 -168
-241 -131 -303 -170 -465 -299 -93 -74 -258 -251 -351 -377 -177 -240 -269
-415 -353 -675 -36 -113 -44 -143 -70 -255 -54 -235 -60 -573 -15 -820 9 -47
20 -105 24 -130 8 -45 81 -269 105 -325 7 -16 22 -53 33 -80 57 -146 203 -382
332 -540 38 -46 218 -225 281 -278 119 -101 328 -232 502 -315 59 -29 110 -52
113 -52 3 0 20 -7 37 -14 90 -42 411 -127 547 -145 145 -20 482 -15 600 9 159
33 349 84 475 130 77 28 366 171 385 190 3 3 32 23 65 44 146 95 340 273 470
431 27 33 52 62 55 65 3 3 16 22 30 42 14 21 28 38 33 38 4 0 7 5 7 10 0 6 16
34 35 63 19 28 35 57 35 64 0 6 3 13 8 15 7 3 72 105 72 114 0 2 23 52 50 110
28 58 50 110 50 115 0 5 11 37 25 71 14 35 26 72 28 83 2 11 10 34 16 50 7 17
16 50 21 75 32 175 40 228 51 329 11 108 8 387 -7 486 -21 152 -28 189 -46
260 -44 173 -111 359 -164 454 -13 24 -24 48 -24 53 0 5 -13 29 -30 53 -17 24
-30 46 -30 49 0 6 -102 167 -120 189 -5 7 -45 57 -89 112 -43 55 -124 143
-178 195 -102 98 -122 114 -239 200 -38 28 -78 58 -90 67 -49 37 -259 147
-374 196 -59 26 -241 84 -315 102 -38 9 -79 18 -90 21 -119 28 -448 49 -615
38z m1101 -1005 c8 -15 9 -83 5 -226 -6 -232 3 -205 -111 -348 -69 -87 -91
-115 -237 -303 -67 -85 -194 -250 -233 -301 -11 -14 -71 -92 -135 -173 -63
-80 -142 -181 -175 -224 -63 -82 -189 -242 -203 -259 -9 -11 -89 -117 -110
-146 -8 -10 -11 -23 -7 -29 4 -7 217 -10 670 -10 365 0 670 -3 679 -6 14 -5
16 -37 16 -249 0 -192 -3 -244 -13 -248 -25 -9 -2070 2 -2079 11 -5 5 -8 105
-6 234 l3 224 63 80 c34 43 88 112 120 152 31 40 89 113 127 162 39 49 103
131 142 182 40 51 120 154 178 228 58 74 122 157 143 184 20 26 42 53 47 60 6
6 24 29 40 51 16 22 48 63 71 90 121 145 274 350 274 366 0 18 -19 19 -593 19
-448 0 -596 3 -605 12 -17 17 -17 459 0 476 9 9 237 12 965 12 l952 0 12 -21z"/>
</g>
</svg>
